<svg width="23" height="19" viewBox="0 0 23 19" fill="none" xmlns="http://www.w3.org/2000/svg">
<path d="M0 6.61185C0.140012 6.19181 0.436508 5.9365 0.823599 5.74707C3.9121 4.28106 6.99236 2.79858 10.0809 1.34081C11.1021 0.854889 12.1646 0.871361 13.1858 1.36552C16.1837 2.81506 19.1652 4.28106 22.1548 5.73883C22.5254 5.92002 22.8384 6.1424 22.9619 6.56243C23.0772 6.96599 22.9208 7.2872 22.6243 7.53428C22.4678 7.66605 22.2784 7.76489 22.0889 7.86372C21.1747 8.3167 20.2688 8.76968 19.3463 9.20618C19.1734 9.28854 19.1322 9.38738 19.1322 9.56033C19.1404 11.224 19.1322 12.8877 19.1404 14.5431C19.1404 14.8067 19.0581 15.0126 18.8851 15.2102C17.4768 16.808 15.739 17.854 13.6553 18.2658C10.7068 18.867 7.9642 18.3646 5.52635 16.5527C4.97454 16.1409 4.49685 15.622 4.01093 15.1196C3.89562 15.0043 3.82974 14.7902 3.82974 14.6172C3.81326 12.9124 3.8215 11.1993 3.8215 9.49444C3.8215 9.33796 3.78856 9.2556 3.64031 9.18971C3.24498 9.00852 2.84965 8.81086 2.42962 8.59672C2.42962 8.82733 2.42962 9.00852 2.42962 9.19795C2.42962 10.1945 2.42962 11.1911 2.42962 12.1876C2.42962 12.3029 2.44609 12.377 2.56139 12.4347C3.00614 12.6735 3.24498 13.0524 3.23674 13.563C3.22851 14.0654 2.9979 14.4443 2.55316 14.6914C2.52845 14.7078 2.50374 14.7243 2.46256 14.749C2.84965 15.9926 3.24498 17.2363 3.64031 18.4964C2.52845 18.4964 1.4413 18.4964 0.337676 18.4964C0.362384 18.414 0.378856 18.3481 0.395328 18.2822C0.741239 17.1704 1.09539 16.0585 1.44953 14.9467C1.49071 14.8067 1.49895 14.7325 1.3507 14.6419C0.502395 14.1231 0.527103 12.9371 1.39188 12.4429C1.50719 12.377 1.54837 12.3112 1.54837 12.1794C1.54013 10.8946 1.54013 9.60151 1.54837 8.3167C1.54837 8.18492 1.50719 8.1108 1.38365 8.06962C1.26834 8.02844 1.15304 7.96255 1.03774 7.9049C0.57652 7.71547 0.181192 7.46015 0 6.97423C0 6.85069 0 6.73539 0 6.61185ZM0.831835 6.76833C0.823599 6.80128 0.815363 6.83422 0.798891 6.86716C0.856543 6.90011 0.914195 6.93305 0.980083 6.96599C1.51542 7.21307 2.00135 7.55075 2.6767 7.44368C4.1427 7.21307 5.63342 7.0813 7.10766 6.90011C8.53249 6.73539 9.95732 6.56243 11.3904 6.39771C11.6704 6.36477 11.8681 6.50478 11.901 6.74362C11.934 6.97423 11.7775 7.16366 11.4892 7.20484C11.0939 7.26249 10.6986 7.30367 10.3115 7.34485C8.43366 7.56722 6.55585 7.78959 4.66981 8.00373C4.29095 8.04491 3.9121 8.09433 3.46735 8.15198C3.59913 8.21787 3.66502 8.25081 3.7309 8.28375C5.92991 9.33796 8.12069 10.3922 10.3197 11.4464C11.168 11.8499 12.0245 11.8582 12.8729 11.4381C14.8742 10.4663 16.8755 9.49444 18.8687 8.51436C19.857 8.02844 20.8453 7.55075 21.8254 7.05659C21.9489 6.99894 22.0395 6.88364 22.1466 6.79304C22.0395 6.70244 21.9407 6.61185 21.8336 6.52949C21.8089 6.51302 21.7842 6.50478 21.7513 6.48831C18.7863 5.03877 15.8213 3.58924 12.8481 2.1397C12.0328 1.74438 11.2009 1.75261 10.3774 2.13147C9.97379 2.31266 9.57846 2.51032 9.18313 2.69975C6.53938 3.97633 3.88739 5.25291 1.24363 6.52125C1.10362 6.59538 0.971847 6.68597 0.831835 6.76833ZM18.2839 9.68387C18.1604 9.74152 18.078 9.7827 17.9874 9.82388C16.3896 10.6063 14.7918 11.3887 13.1941 12.1711C12.1316 12.69 11.0527 12.6818 9.99026 12.1876C8.31012 11.397 6.62997 10.5816 4.94983 9.7827C4.87571 9.74152 4.79335 9.70858 4.69452 9.6674C4.68628 9.72505 4.67804 9.758 4.67804 9.79918C4.67804 11.364 4.67804 12.9289 4.68628 14.4937C4.68628 14.5843 4.74393 14.6914 4.80158 14.7655C5.49341 15.5561 6.30877 16.1985 7.24767 16.668C9.67729 17.8869 12.181 18.0105 14.726 17.1045C16.0519 16.635 17.1885 15.8526 18.1274 14.7984C18.2098 14.7078 18.2674 14.5513 18.2674 14.4278C18.2839 13.8183 18.2757 13.2171 18.2757 12.6076C18.2839 11.644 18.2839 10.6887 18.2839 9.68387Z" fill="#40A829"/>
</svg>
